<svg xmlns="http://www.w3.org/2000/svg" width="48" height="48" fill="none"><rect width="48" height="48" fill="#5865F2" rx="24"/><path fill="#fff" d="M33.177 15.62A20.36 20.36 0 0 0 28.02 14c-.223.402-.482.942-.661 1.372a18.938 18.938 0 0 0-5.716 0c-.18-.43-.445-.97-.669-1.372a20.29 20.29 0 0 0-5.161 1.625c-3.264 4.932-4.15 9.742-3.707 14.484 2.165 1.617 4.263 2.599 6.326 3.241.51-.7.963-1.446 1.355-2.23a13.33 13.33 0 0 1-2.134-1.04c.18-.132.354-.27.523-.413 4.114 1.924 8.583 1.924 12.648 0 .17.143.346.281.523.414a13.29 13.29 0 0 1-2.138 1.04c.392.783.844 1.53 1.355 2.231a20.578 20.578 0 0 0 6.33-3.243c.519-5.497-.887-10.263-3.717-14.488Zm-12.83 11.573c-1.235 0-2.248-1.153-2.248-2.557s.992-2.558 2.248-2.558c1.257 0 2.27 1.152 2.248 2.558.002 1.404-.991 2.557-2.248 2.557Zm8.306 0c-1.235 0-2.248-1.153-2.248-2.557s.991-2.558 2.248-2.558c1.256 0 2.269 1.152 2.247 2.558 0 1.404-.99 2.557-2.247 2.557Z"/></svg>