<svg xmlns="http://www.w3.org/2000/svg" width="48" height="48" fill="none"><rect width="47.5" height="47.5" x=".25" y=".25" fill="#fff" rx="23.75"/><rect width="47.5" height="47.5" x=".25" y=".25" stroke="#C3CBD1" stroke-width=".5" rx="23.75"/><path fill="#EA4335" d="M24 16.845c2.191 0 3.669.946 4.511 1.736l3.293-3.214c-2.022-1.88-4.654-3.034-7.804-3.034-4.563 0-8.503 2.619-10.422 6.43l3.772 2.93c.947-2.813 3.565-4.849 6.65-4.849Z"/><path fill="#4285F4" d="M35.2 24.26c0-.96-.078-1.66-.246-2.386H24v4.33h6.43c-.13 1.076-.83 2.696-2.386 3.785l3.682 2.852c2.204-2.035 3.474-5.03 3.474-8.582Z"/><path fill="#FBBC05" d="M17.363 26.308A7.182 7.182 0 0 1 16.974 24c0-.804.143-1.581.376-2.307l-3.772-2.93A11.677 11.677 0 0 0 12.333 24c0 1.88.454 3.656 1.245 5.237l3.785-2.93Z"/><path fill="#34A853" d="M24 35.667c3.15 0 5.795-1.037 7.726-2.826l-3.681-2.852c-.986.687-2.308 1.167-4.045 1.167-3.085 0-5.704-2.035-6.637-4.848l-3.772 2.93c1.918 3.81 5.846 6.429 10.41 6.429Z"/></svg>