<svg width="current" height="current" viewBox="0 0 76 72" fill="none" xmlns="http://www.w3.org/2000/svg">
<path d="M19.5 47C28.6127 47 36 39.6127 36 30.5C36 21.3873 28.6127 14 19.5 14C10.3873 14 3 21.3873 3 30.5C3 39.6127 10.3873 47 19.5 47Z" fill="#FBCF79" stroke="#FBCF79" stroke-width="5"/>
<g clip-path="url(#clip0_134_421)">
<path d="M14.1956 70.1975C13.7306 70.0648 13.4649 69.5666 13.3985 68.703C13.2657 68.2714 13.166 67.7565 13.0996 67.1587C13.0664 66.5609 13.0498 65.8802 13.0498 65.1162C13.0498 64.4188 13.166 63.4555 13.3985 62.2269C13.631 61.0313 13.9465 59.6695 14.345 58.1419C14.7768 56.6144 15.2915 54.9704 15.8893 53.2101C16.4871 51.4168 17.1514 49.6066 17.882 47.7802C18.7787 45.4886 19.5591 43.5127 20.2233 41.852C20.8876 40.1583 21.4355 38.697 21.8673 37.4682C22.3322 36.2394 22.6975 35.2265 22.9632 34.4294C23.2621 33.6324 23.4946 32.9516 23.6607 32.387C23.7935 31.9884 23.9928 31.5069 24.2585 30.9423C24.5242 30.3777 24.823 29.8131 25.1551 29.2485C25.5205 28.6507 25.8858 28.1028 26.2511 27.6046C26.6164 27.0732 26.9485 26.6747 27.2474 26.409C28.4098 26.5751 29.5058 26.874 30.5353 27.3057C31.5648 27.7374 32.1958 28.1526 32.4283 28.5511C31.9633 28.9828 31.432 29.6637 30.8342 30.5936C30.2364 31.4903 29.6552 32.4866 29.0906 33.5825C28.526 34.6453 28.0113 35.7413 27.5463 36.8704C27.0814 37.9996 26.7326 38.9958 26.5002 39.8594C26.8323 39.2947 27.264 38.6804 27.7954 38.0162C28.3268 37.352 29.1404 36.4387 30.2364 35.2763C31.4652 34.0143 32.611 33.0512 33.6737 32.387C34.7697 31.6895 35.7162 31.3408 36.5132 31.3408C37.7753 31.3408 38.8048 31.6895 39.6018 32.387C40.4321 33.0844 40.8473 33.9811 40.8473 35.077C40.8473 37.4682 40.4487 39.8427 39.6517 42.2008C38.8546 44.5254 37.7088 46.6344 36.2143 48.5274C35.6497 49.2579 34.9856 49.9553 34.2217 50.6197C33.4578 51.284 32.6608 51.8818 31.8305 52.4131C31.0003 52.9112 30.1866 53.3098 29.3895 53.6087C28.5925 53.9076 27.8784 54.057 27.2474 54.057C26.6496 54.057 26.1183 53.9406 25.6533 53.7083C25.2216 53.4425 24.9227 53.1272 24.7566 52.7618C26.0518 51.9978 27.3139 50.9353 28.5426 49.5736C29.7714 48.2118 30.9006 46.6511 31.9302 44.8908C32.9929 43.0974 33.9062 41.1713 34.67 39.1121C35.4671 37.0531 36.0649 34.9608 36.4634 32.8353C35.2014 33.4995 34.0556 34.2302 33.0261 35.0272C32.0298 35.7911 31.0335 36.804 30.0371 38.066C28.8415 39.5274 27.895 40.7063 27.1976 41.603C26.5002 42.4997 25.919 43.2636 25.454 43.8945C25.0223 44.5254 24.657 45.1232 24.3581 45.6879C24.0924 46.2191 23.7935 46.8835 23.4614 47.6805C22.9964 48.7434 22.4485 50.1546 21.8175 51.9149C21.2197 53.6417 20.5887 55.5846 19.9244 57.7434C19.2934 59.9022 18.6458 62.1938 17.9816 64.6181C17.3506 67.0758 16.7362 69.5168 16.1384 71.941C15.7731 71.8745 15.4576 71.6091 15.1919 71.144C14.9262 70.8451 14.7269 70.6291 14.5941 70.4964C14.4945 70.3637 14.3616 70.264 14.1956 70.1975ZM42.5932 50.5201C42.5932 49.0587 42.9419 47.0162 43.6393 44.3927C44.3367 41.7357 45.3164 38.6472 46.5785 35.1268C48.6375 29.5142 50.5638 24.8481 52.3571 21.1285C54.1836 17.3757 55.9606 14.4531 57.6875 12.3608C58.086 12.4273 58.5674 12.5933 59.1321 12.859C59.7299 13.1247 60.311 13.4236 60.8757 13.7557C61.4404 14.0546 61.9386 14.3701 62.3702 14.7022C62.8353 15.0343 63.1342 15.3 63.2669 15.4993C60.6764 18.5547 58.4016 21.8425 56.4421 25.3629C54.4825 28.8832 52.6891 32.9183 51.0619 37.4682C49.6671 41.387 48.6043 44.9239 47.8737 48.0791C47.1431 51.2008 46.7777 53.8079 46.7777 55.9002C46.7777 56.4649 46.7777 56.8136 46.7777 56.9464C46.7777 57.0791 46.7943 57.2122 46.8275 57.3449C46.3626 57.2783 45.964 57.1624 45.6319 56.9962C45.2999 56.83 45.084 56.6307 44.9843 56.3984C44.9179 56.2322 44.7353 55.9831 44.4364 55.6511C44.1375 55.3522 43.8718 55.1199 43.6393 54.9537C43.3404 54.7544 43.0913 54.2395 42.8921 53.4094C42.6928 52.5458 42.5932 51.5829 42.5932 50.5201ZM52.6226 53.0109C52.6226 52.4796 53.0876 51.6327 54.0174 50.4702C54.9472 49.2747 56.1762 47.9296 57.7038 46.4351C59.2649 44.9076 61.0415 43.3134 63.0341 41.6528C65.0599 39.959 67.1522 38.3317 69.311 36.7708C67.9161 36.4719 66.8034 36.256 65.9733 36.1232C65.1762 35.9903 64.5286 35.9239 64.0305 35.9239C63.0672 35.9239 62.204 36.0567 61.44 36.3224C60.6761 36.5881 59.9288 37.0199 59.1983 37.6177C57.6707 36.2892 56.9068 34.7615 56.9068 33.0346C56.9068 32.5032 56.9235 32.1877 56.9566 32.0881C57.5213 31.5235 58.1852 31.0917 58.9492 30.7928C59.7463 30.4939 60.5764 30.3445 61.44 30.3445C62.3698 30.3445 63.3163 30.4939 64.2796 30.7928C65.2428 31.0917 66.1893 31.4238 67.1191 31.7892C68.0489 32.1213 68.9125 32.4368 69.7095 32.7357C70.5397 33.0346 71.2706 33.184 71.9014 33.184C72.2669 33.184 72.6654 33.1342 73.097 33.0346C73.5621 32.9349 73.9439 32.8021 74.2428 32.636C74.5417 32.8685 74.8075 33.3335 75.0399 34.0309C75.3057 34.7283 75.4384 35.4091 75.4384 36.0734C74.409 36.4719 73.1636 37.1693 71.7022 38.1656C70.2742 39.162 68.8128 40.3077 67.3183 41.603C65.8239 42.8982 64.3625 44.2763 62.9345 45.7377C61.5397 47.1991 60.3772 48.5772 59.4474 49.8724C60.1448 50.1713 61.0913 50.3208 62.2869 50.3208C63.0509 50.3208 63.8312 50.2542 64.6283 50.1215C65.4253 49.9888 66.1893 49.8059 66.9198 49.5736C67.6838 49.3412 68.3812 49.0754 69.0121 48.7765C69.643 48.4445 70.1746 48.0958 70.6062 47.7304C72.1673 48.7267 72.9476 50.1881 72.9476 52.1142C72.9476 52.38 72.9308 52.5956 72.8978 52.7618C72.8978 52.928 72.881 53.1272 72.8479 53.3596C71.3204 54.3228 69.6597 54.8043 67.8663 54.8043C66.9696 54.8043 66.0729 54.7046 65.1762 54.5054C64.2796 54.3392 63.3996 54.1566 62.536 53.9574C61.7058 53.7581 60.9088 53.5756 60.1448 53.4094C59.4143 53.2101 58.7332 53.1105 58.1023 53.1105C56.5082 53.1105 55.213 53.8577 54.2167 55.3522C53.7851 55.186 53.4196 54.8872 53.1207 54.4555C52.8549 54.0239 52.6891 53.5421 52.6226 53.0109Z" fill="black"/>
</g>
<defs>
<clipPath id="clip0_134_421">
<rect width="62.6595" height="72" fill="white" transform="translate(13)"/>
</clipPath>
</defs>
</svg>
