<svg width="current" height="current" viewBox="0 0 54 54" fill="none" xmlns="http://www.w3.org/2000/svg">
<rect width="54" height="54" fill="#F1F1F1"/>
<path opacity="0.4" d="M27.4411 22.8151V27.1787H26.738L24.6819 24.2064H24.6457V27.1787H23.8552V22.8151H24.5626L26.6165 25.7895H26.6549V22.8151H27.4411ZM29.6959 27.2426C29.3763 27.2426 29.0993 27.1723 28.8649 27.0317C28.6306 26.8911 28.4487 26.6943 28.3195 26.4415C28.1916 26.1887 28.1277 25.8932 28.1277 25.5551C28.1277 25.2171 28.1916 24.9209 28.3195 24.6666C28.4487 24.4124 28.6306 24.2149 28.8649 24.0743C29.0993 23.9337 29.3763 23.8634 29.6959 23.8634C30.0155 23.8634 30.2925 23.9337 30.5269 24.0743C30.7612 24.2149 30.9424 24.4124 31.0702 24.6666C31.1995 24.9209 31.2641 25.2171 31.2641 25.5551C31.2641 25.8932 31.1995 26.1887 31.0702 26.4415C30.9424 26.6943 30.7612 26.8911 30.5269 27.0317C30.2925 27.1723 30.0155 27.2426 29.6959 27.2426ZM29.7002 26.6247C29.8735 26.6247 30.0184 26.5771 30.1348 26.482C30.2513 26.3854 30.338 26.2561 30.3948 26.0942C30.453 25.9323 30.4821 25.7519 30.4821 25.553C30.4821 25.3527 30.453 25.1716 30.3948 25.0097C30.338 24.8463 30.2513 24.7164 30.1348 24.6198C30.0184 24.5232 29.8735 24.4749 29.7002 24.4749C29.5226 24.4749 29.3749 24.5232 29.257 24.6198C29.1405 24.7164 29.0532 24.8463 28.9949 25.0097C28.9381 25.1716 28.9097 25.3527 28.9097 25.553C28.9097 25.7519 28.9381 25.9323 28.9949 26.0942C29.0532 26.2561 29.1405 26.3854 29.257 26.482C29.3749 26.5771 29.5226 26.6247 29.7002 26.6247ZM19.0193 34.1787V30.906H19.7906V34.1787H19.0193ZM19.4071 30.4415C19.285 30.4415 19.1798 30.401 19.0918 30.32C19.0037 30.2377 18.9597 30.1389 18.9597 30.0239C18.9597 29.9074 19.0037 29.8087 19.0918 29.7277C19.1798 29.6453 19.285 29.6041 19.4071 29.6041C19.5307 29.6041 19.6358 29.6453 19.7225 29.7277C19.8105 29.8087 19.8546 29.9074 19.8546 30.0239C19.8546 30.1389 19.8105 30.2377 19.7225 30.32C19.6358 30.401 19.5307 30.4415 19.4071 30.4415ZM20.5838 34.1787V30.906H21.321V31.4621H21.3593C21.4275 31.2746 21.5405 31.1283 21.6981 31.0232C21.8558 30.9166 22.044 30.8634 22.2628 30.8634C22.4843 30.8634 22.6711 30.9173 22.8231 31.0253C22.9765 31.1318 23.0845 31.2774 23.147 31.4621H23.1811C23.2535 31.2803 23.3757 31.1354 23.5476 31.0274C23.7209 30.9181 23.9261 30.8634 24.1633 30.8634C24.4645 30.8634 24.7102 30.9585 24.9005 31.1489C25.0909 31.3392 25.1861 31.6169 25.1861 31.982V34.1787H24.4126V32.1013C24.4126 31.8982 24.3586 31.7497 24.2507 31.656C24.1427 31.5608 24.0106 31.5132 23.8544 31.5132C23.6683 31.5132 23.5227 31.5715 23.4176 31.6879C23.3139 31.803 23.262 31.9529 23.262 32.1375V34.1787H22.5057V32.0693C22.5057 31.9003 22.4545 31.7654 22.3522 31.6645C22.2514 31.5637 22.1193 31.5132 21.9559 31.5132C21.8451 31.5132 21.7443 31.5416 21.6534 31.5985C21.5625 31.6539 21.49 31.7327 21.4361 31.835C21.3821 31.9358 21.3551 32.0537 21.3551 32.1887V34.1787H20.5838ZM26.9103 34.2448C26.7029 34.2448 26.5161 34.2078 26.3499 34.134C26.1852 34.0587 26.0545 33.9479 25.9579 33.8016C25.8627 33.6553 25.8151 33.4749 25.8151 33.2604C25.8151 33.0757 25.8492 32.923 25.9174 32.8023C25.9856 32.6816 26.0786 32.585 26.1965 32.5125C26.3144 32.4401 26.4472 32.3854 26.595 32.3485C26.7441 32.3101 26.8982 32.2824 27.0573 32.2654C27.2491 32.2455 27.4046 32.2277 27.5239 32.2121C27.6433 32.195 27.7299 32.1695 27.7839 32.1354C27.8393 32.0999 27.867 32.0452 27.867 31.9713V31.9585C27.867 31.798 27.8194 31.6737 27.7242 31.5857C27.6291 31.4976 27.492 31.4536 27.313 31.4536C27.1241 31.4536 26.9742 31.4948 26.8634 31.5771C26.7541 31.6595 26.6802 31.7568 26.6418 31.8691L25.9217 31.7668C25.9785 31.5679 26.0722 31.4017 26.2029 31.2682C26.3336 31.1333 26.4934 31.0324 26.6823 30.9656C26.8712 30.8975 27.0801 30.8634 27.3087 30.8634C27.4664 30.8634 27.6234 30.8818 27.7796 30.9188C27.9359 30.9557 28.0786 31.0168 28.2079 31.102C28.3372 31.1858 28.4408 31.3002 28.519 31.445C28.5985 31.5899 28.6383 31.771 28.6383 31.9884V34.1787H27.8968V33.7291H27.8712C27.8244 33.82 27.7583 33.9053 27.6731 33.9848C27.5893 34.0629 27.4835 34.1262 27.3556 34.1744C27.2292 34.2213 27.0808 34.2448 26.9103 34.2448ZM27.1106 33.678C27.2654 33.678 27.3997 33.6475 27.5133 33.5864C27.6269 33.5239 27.7143 33.4415 27.7754 33.3392C27.8379 33.2369 27.8691 33.1254 27.8691 33.0047V32.6191C27.845 32.6389 27.8038 32.6574 27.7455 32.6744C27.6887 32.6915 27.6248 32.7064 27.5538 32.7192C27.4828 32.732 27.4124 32.7433 27.3428 32.7533C27.2732 32.7632 27.2129 32.7718 27.1617 32.7789C27.0467 32.7945 26.9437 32.82 26.8528 32.8556C26.7619 32.8911 26.6901 32.9408 26.6376 33.0047C26.585 33.0672 26.5587 33.1482 26.5587 33.2476C26.5587 33.3896 26.6106 33.4969 26.7143 33.5693C26.818 33.6418 26.9501 33.678 27.1106 33.678ZM30.8372 35.4742C30.5602 35.4742 30.3222 35.4365 30.1234 35.3612C29.9245 35.2874 29.7647 35.1879 29.644 35.0629C29.5232 34.9379 29.4394 34.7994 29.3926 34.6475L30.0872 34.4791C30.1184 34.5431 30.1639 34.6063 30.2235 34.6688C30.2832 34.7327 30.3634 34.7852 30.4643 34.8264C30.5666 34.8691 30.6951 34.8904 30.8499 34.8904C31.0687 34.8904 31.2498 34.8371 31.3933 34.7306C31.5367 34.6254 31.6085 34.4521 31.6085 34.2107V33.5906H31.5701C31.5303 33.6702 31.4721 33.7519 31.3954 33.8357C31.3201 33.9195 31.22 33.9898 31.095 34.0466C30.9714 34.1034 30.8158 34.1318 30.6283 34.1318C30.3769 34.1318 30.1489 34.0729 29.9444 33.955C29.7413 33.8357 29.5793 33.6581 29.4586 33.4223C29.3393 33.1851 29.2796 32.8882 29.2796 32.5317C29.2796 32.1723 29.3393 31.8691 29.4586 31.6219C29.5793 31.3733 29.742 31.1851 29.9465 31.0573C30.1511 30.928 30.3791 30.8634 30.6305 30.8634C30.8222 30.8634 30.9799 30.896 31.1035 30.9614C31.2285 31.0253 31.3279 31.1027 31.4018 31.1936C31.4756 31.2831 31.5318 31.3676 31.5701 31.4472H31.6127V30.906H32.3734V34.232C32.3734 34.5118 32.3066 34.7433 32.1731 34.9266C32.0396 35.1098 31.857 35.2469 31.6255 35.3378C31.394 35.4287 31.1312 35.4742 30.8372 35.4742ZM30.8435 33.5267C31.0069 33.5267 31.1461 33.4869 31.2612 33.4074C31.3762 33.3279 31.4636 33.2135 31.5232 33.0644C31.5829 32.9152 31.6127 32.7362 31.6127 32.5274C31.6127 32.3215 31.5829 32.1411 31.5232 31.9862C31.465 31.8314 31.3783 31.7114 31.2633 31.6262C31.1497 31.5395 31.0097 31.4962 30.8435 31.4962C30.6717 31.4962 30.5282 31.5409 30.4131 31.6304C30.2981 31.7199 30.2114 31.8428 30.1532 31.999C30.095 32.1539 30.0658 32.33 30.0658 32.5274C30.0658 32.7277 30.095 32.9031 30.1532 33.0537C30.2129 33.2029 30.3002 33.3193 30.4153 33.4031C30.5318 33.4855 30.6745 33.5267 30.8435 33.5267ZM34.6127 34.2426C34.2846 34.2426 34.0012 34.1744 33.7626 34.0381C33.5254 33.9003 33.3428 33.7057 33.215 33.4543C33.0872 33.2014 33.0232 32.9039 33.0232 32.5615C33.0232 32.2249 33.0872 31.9294 33.215 31.6752C33.3443 31.4195 33.5247 31.2206 33.7562 31.0786C33.9877 30.9351 34.2597 30.8634 34.5722 30.8634C34.7739 30.8634 34.9643 30.896 35.1433 30.9614C35.3237 31.0253 35.4828 31.1247 35.6205 31.2597C35.7597 31.3946 35.8691 31.5665 35.9487 31.7753C36.0282 31.9827 36.068 32.2298 36.068 32.5168V32.7533H33.3854V32.2334H35.3286C35.3272 32.0857 35.2953 31.9543 35.2328 31.8392C35.1703 31.7227 35.0829 31.6311 34.9707 31.5644C34.8599 31.4976 34.7306 31.4642 34.5829 31.4642C34.4252 31.4642 34.2867 31.5026 34.1674 31.5793C34.0481 31.6546 33.9551 31.754 33.8883 31.8776C33.8229 31.9997 33.7896 32.134 33.7881 32.2803V32.7341C33.7881 32.9244 33.8229 33.0878 33.8926 33.2242C33.9622 33.3591 34.0595 33.4628 34.1845 33.5352C34.3095 33.6063 34.4558 33.6418 34.6234 33.6418C34.7356 33.6418 34.8372 33.6262 34.9281 33.5949C35.019 33.5622 35.0978 33.5146 35.1646 33.4521C35.2313 33.3896 35.2818 33.3122 35.3158 33.2199L36.036 33.3009C35.9906 33.4912 35.9039 33.6574 35.7761 33.7994C35.6497 33.9401 35.4877 34.0494 35.2903 34.1276C35.0928 34.2043 34.867 34.2426 34.6127 34.2426Z" fill="black"/>
</svg>
